<?xml version="1.0" standalone="no"?>
<!DOCTYPE svg PUBLIC "-//W3C//DTD SVG 20010904//EN"
 "http://www.w3.org/TR/2001/REC-SVG-20010904/DTD/svg10.dtd">
<svg version="1.0" xmlns="http://www.w3.org/2000/svg"
 width="1200.000000pt" height="1351.000000pt" viewBox="0 0 1200.000000 1351.000000"
 preserveAspectRatio="xMidYMid meet">

<g transform="translate(0.000000,1351.000000) scale(0.100000,-0.100000)"
fill="#000000" stroke="none">
<path d="M10705 9472 c-627 -362 -1489 -860 -1915 -1107 -426 -246 -896 -518
-1045 -603 -148 -85 -587 -338 -975 -562 -388 -224 -1105 -638 -1595 -920
-489 -282 -893 -516 -897 -519 -18 -16 152 -248 280 -382 760 -800 2028 -826
2826 -59 111 106 227 247 300 362 45 71 51 76 70 66 29 -15 1700 -980 1706
-985 15 -13 -194 -325 -335 -501 -641 -798 -1559 -1321 -2575 -1466 -306 -44
-762 -47 -1060 -6 -1208 162 -2243 830 -2895 1868 -39 63 -63 91 -72 88 -37
-15 -2363 -1362 -2363 -1369 0 -5 24 -43 52 -85 64 -93 184 -215 258 -263 119
-79 5039 -2914 5101 -2941 136 -57 225 -73 429 -73 203 0 292 15 429 73 99 42
5054 2905 5140 2970 175 132 332 376 399 619 l27 98 3 2935 c2 2115 0 2957 -8
3015 -13 92 -65 256 -110 344 -16 34 -31 61 -33 61 -1 0 -515 -296 -1142 -658z
m-1147 -2269 l2 -223 220 0 220 0 0 -225 0 -225 -220 0 -220 0 0 -220 0 -220
-225 0 -225 0 0 220 0 220 -222 2 -223 3 -3 223 -2 222 225 0 225 0 0 225 0
225 223 -2 222 -3 3 -222z m1662 2 l0 -225 225 0 225 0 -2 -222 -3 -223 -222
-3 -223 -2 0 -220 0 -220 -220 0 -220 0 0 220 0 220 -222 2 -223 3 -3 223 -2
222 225 0 225 0 0 225 0 225 220 0 220 0 0 -225z"/>
</g>
</svg>
